<svg xmlns="http://www.w3.org/2000/svg" width="32" height="32" viewBox="0 0 100 100">
  <!-- Main circle with blue background -->
  <circle cx="50" cy="50" r="48" fill="#1E40AF" stroke="#FFD700" stroke-width="2"/>
  
  <!-- Inner shield/emblem -->
  <path d="M30 35 L50 25 L70 35 L70 65 C70 75 50 85 50 85 C50 85 30 75 30 65 Z" fill="#FFD700" stroke="#1E40AF" stroke-width="1"/>
  
  <!-- Traditional Dayak pattern -->
  <circle cx="50" cy="45" r="8" fill="#1E40AF"/>
  <path d="M42 52 Q50 48 58 52 Q50 56 42 52" fill="#1E40AF"/>
  
  <!-- River representation (Mahakam) -->
  <path d="M35 65 Q50 62 65 65" stroke="#4169E1" stroke-width="2" fill="none"/>
  <path d="M38 68 Q50 65 62 68" stroke="#4169E1" stroke-width="1.5" fill="none"/>
  
  <!-- Small decorative elements -->
  <circle cx="42" cy="38" r="2" fill="#1E40AF"/>
  <circle cx="58" cy="38" r="2" fill="#1E40AF"/>
  
  <!-- Traditional motif -->
  <path d="M45 58 L50 62 L55 58" stroke="#1E40AF" stroke-width="2" fill="none"/>
</svg>
